<?xml version="1.0" encoding="UTF-8"?>
<svg width="700pt" height="700pt" version="1.1" viewBox="0 0 700 700" xmlns="http://www.w3.org/2000/svg">
 <g>
  <path d="m561.23 238.52c-4.6445 0-9.0938 1.8438-12.375 5.1289-3.2812 3.2812-5.125 7.7305-5.125 12.371v162.23c0 14.297-5.6445 28.016-15.703 38.176-10.062 10.16-23.727 15.938-38.023 16.074h-278.25c-14.387 0-28.188-5.7148-38.359-15.891-10.176-10.172-15.891-23.973-15.891-38.359v-278.25c0-14.387 5.7148-28.188 15.891-38.359 10.172-10.176 23.973-15.891 38.359-15.891h162.23c6.25 0 12.027-3.3359 15.152-8.75 3.1289-5.4141 3.1289-12.086 0-17.5-3.125-5.4141-8.9023-8.75-15.152-8.75h-162.23c-23.656 0.046875-46.332 9.4648-63.059 26.191-16.727 16.727-26.145 39.402-26.191 63.059v278.25c0.046875 23.656 9.4648 46.332 26.191 63.059 16.727 16.727 39.402 26.145 63.059 26.191h278.25c23.656-0.046875 46.332-9.4648 63.059-26.191 16.727-16.727 26.145-39.402 26.191-63.059v-162.23c0.003906-4.7305-1.9141-9.2656-5.3086-12.562-3.3984-3.2969-7.9844-5.0781-12.715-4.9375z"/>
  <path d="m589.93 113.23-73.152-73.152c-3.2852-3.3125-7.7578-5.1758-12.422-5.1758-4.668 0-9.1406 1.8633-12.426 5.1758l-33.25 33.426 97.824 97.824 33.426-33.25c3.1953-3.3516 5.0078-7.7891 5.0742-12.426 0.027344-4.6484-1.8008-9.1211-5.0742-12.422z"/>
  <path d="m267.57 271.95v72.977c0 4.6406 1.8438 9.0898 5.125 12.375 3.2852 3.2812 7.7344 5.125 12.375 5.125h72.977c4.6523 0.027344 9.1211-1.8008 12.426-5.0742l161.35-161.35-97.828-97.824-161.35 161.35v-0.003906c-3.2734 3.3047-5.1016 7.7734-5.0742 12.426z"/>
 </g>
</svg>
